<svg xmlns="http://www.w3.org/2000/svg" width="900" height="900" viewBox="0 0 900 900" role="img" aria-label="Brooks Global Symbol - Original">
<title>Brooks Global Symbol - Original</title>
<rect width="100%" height="100%" fill="none"/>
<path d="M 324 593 L 324 744 L 325 743 L 325 595 Z M 517 593 L 517 744 L 667 745 L 668 594 L 666 592 Z M 341 593 L 341 745 L 500 744 L 499 592 Z M 295 591 L 299 591 L 300 592 L 318 592 L 319 591 L 321 591 Z M 247 591 L 250 591 L 251 592 L 267 592 L 268 591 L 271 591 Z M 177 591 L 181 591 L 182 592 L 189 592 L 191 591 Z M 323 508 L 257 573 L 258 575 L 323 575 L 325 572 Z M 349 470 L 341 489 L 341 575 L 500 574 L 500 451 L 377 451 L 362 457 Z M 536 430 L 526 440 L 517 461 L 517 575 L 667 575 L 668 422 L 559 421 Z M 164 573 L 166 575 L 181 575 L 323 434 L 323 421 L 166 421 L 164 423 Z M 648 251 L 592 251 L 589 253 L 581 253 L 558 263 L 536 283 L 529 293 L 526 304 L 524 305 L 521 321 L 522 404 L 527 403 L 529 399 L 541 388 L 546 380 L 569 358 L 570 355 L 650 271 L 650 254 Z M 341 248 L 341 403 L 457 404 L 468 402 L 484 393 L 493 382 L 500 365 L 500 249 Z M 164 249 L 164 402 L 166 404 L 322 404 L 325 401 L 325 250 L 322 247 L 175 247 Z" fill="#061B3A" fill-rule="evenodd"/>
<path d="M 166 592 L 166 745 L 323 745 L 323 592 Z M 732 155 L 714 161 L 713 163 L 700 166 L 693 170 L 692 169 L 688 172 L 686 171 L 683 174 L 680 173 L 659 182 L 646 185 L 567 214 L 568 216 L 689 216 L 691 331 L 692 329 L 693 331 L 723 286 L 727 283 L 726 282 L 735 271 L 735 156 Z" fill="#006AFF" fill-rule="evenodd"/>
</svg>